<mxfile host="app.diagrams.net" agent="Mozilla/5.0 (Windows NT 10.0; Win64; x64) AppleWebKit/537.36 (KHTML, like Gecko) Chrome/127.0.0.0 Safari/537.36 AtContent/95.5.5391.49" version="24.7.6" pages="4">
  <diagram name="Auth" id="edf60f1a-56cd-e834-aa8a-f176f3a09ee4">
    <mxGraphModel dx="2607" dy="1342" grid="1" gridSize="10" guides="1" tooltips="1" connect="1" arrows="1" fold="1" page="1" pageScale="1" pageWidth="1100" pageHeight="850" background="none" math="0" shadow="0">
      <root>
        <mxCell id="0" />
        <mxCell id="1" parent="0" />
        <mxCell id="KLkaMGFnh6U5lrwXZxZ8-9" style="edgeStyle=orthogonalEdgeStyle;rounded=0;orthogonalLoop=1;jettySize=auto;html=1;exitX=1;exitY=0.5;exitDx=0;exitDy=0;exitPerimeter=0;entryX=0;entryY=0.5;entryDx=0;entryDy=0;" edge="1" parent="1" source="ATMucfQL7mX6FEVvn_mT-1" target="KLkaMGFnh6U5lrwXZxZ8-7">
          <mxGeometry relative="1" as="geometry" />
        </mxCell>
        <mxCell id="ATMucfQL7mX6FEVvn_mT-1" value="Login flow" style="strokeWidth=2;html=1;shape=mxgraph.flowchart.terminator;whiteSpace=wrap;rounded=0;labelBackgroundColor=none;shadow=1;" vertex="1" parent="1">
          <mxGeometry x="470" y="70" width="100" height="60" as="geometry" />
        </mxCell>
        <mxCell id="KLkaMGFnh6U5lrwXZxZ8-11" style="edgeStyle=orthogonalEdgeStyle;rounded=0;orthogonalLoop=1;jettySize=auto;html=1;exitX=1;exitY=0.5;exitDx=0;exitDy=0;" edge="1" parent="1" source="ATMucfQL7mX6FEVvn_mT-4" target="ATMucfQL7mX6FEVvn_mT-5">
          <mxGeometry relative="1" as="geometry" />
        </mxCell>
        <mxCell id="ATMucfQL7mX6FEVvn_mT-4" value="User enters credentials" style="shape=parallelogram;html=1;strokeWidth=2;perimeter=parallelogramPerimeter;whiteSpace=wrap;rounded=0;arcSize=12;size=0.23;labelBackgroundColor=none;shadow=1;" vertex="1" parent="1">
          <mxGeometry x="800" y="70" width="100" height="60" as="geometry" />
        </mxCell>
        <mxCell id="ATMucfQL7mX6FEVvn_mT-5" value="Validate&amp;nbsp;&lt;div&gt;Credentails&lt;/div&gt;" style="strokeWidth=2;html=1;shape=mxgraph.flowchart.decision;whiteSpace=wrap;rounded=0;labelBackgroundColor=none;shadow=1;" vertex="1" parent="1">
          <mxGeometry x="940" y="50" width="100" height="100" as="geometry" />
        </mxCell>
        <mxCell id="ATMucfQL7mX6FEVvn_mT-8" value="Successful login" style="strokeWidth=2;html=1;shape=mxgraph.flowchart.terminator;whiteSpace=wrap;rounded=0;labelBackgroundColor=none;shadow=1;" vertex="1" parent="1">
          <mxGeometry x="940" y="220" width="100" height="60" as="geometry" />
        </mxCell>
        <mxCell id="ATMucfQL7mX6FEVvn_mT-13" style="edgeStyle=orthogonalEdgeStyle;rounded=0;orthogonalLoop=1;jettySize=auto;html=1;exitX=0.5;exitY=1;exitDx=0;exitDy=0;exitPerimeter=0;entryX=0.5;entryY=0;entryDx=0;entryDy=0;entryPerimeter=0;labelBackgroundColor=none;fontColor=default;shadow=1;" edge="1" parent="1" source="ATMucfQL7mX6FEVvn_mT-5" target="ATMucfQL7mX6FEVvn_mT-8">
          <mxGeometry relative="1" as="geometry" />
        </mxCell>
        <mxCell id="KLkaMGFnh6U5lrwXZxZ8-3" style="edgeStyle=orthogonalEdgeStyle;rounded=0;orthogonalLoop=1;jettySize=auto;html=1;exitX=1;exitY=0.5;exitDx=0;exitDy=0;exitPerimeter=0;entryX=0;entryY=0.5;entryDx=0;entryDy=0;" edge="1" parent="1" source="ATMucfQL7mX6FEVvn_mT-14" target="KLkaMGFnh6U5lrwXZxZ8-15">
          <mxGeometry relative="1" as="geometry">
            <mxPoint x="620" y="410" as="targetPoint" />
          </mxGeometry>
        </mxCell>
        <mxCell id="ATMucfQL7mX6FEVvn_mT-14" value="Logout flow" style="strokeWidth=2;html=1;shape=mxgraph.flowchart.terminator;whiteSpace=wrap;rounded=0;labelBackgroundColor=none;shadow=1;" vertex="1" parent="1">
          <mxGeometry x="470" y="370" width="100" height="60" as="geometry" />
        </mxCell>
        <mxCell id="ATMucfQL7mX6FEVvn_mT-16" value="User is logged out" style="strokeWidth=2;html=1;shape=mxgraph.flowchart.terminator;whiteSpace=wrap;rounded=0;labelBackgroundColor=none;fillStyle=auto;shadow=1;" vertex="1" parent="1">
          <mxGeometry x="820" y="370" width="100" height="60" as="geometry" />
        </mxCell>
        <mxCell id="KLkaMGFnh6U5lrwXZxZ8-1" value="1. User Authentication&#xa;   - Sign up&#xa;   - Log in&#xa;   - Log out&#xa;   - Password reset&#xa;&#xa;&#xa;2. Dashboard Access&#xa;   - View dashboard&#xa;   - Navigate to different sections (e.g., Products, Sales, Reports)&#xa;&#xa;&#xa;3. Product Management&#xa;   - Add product&#xa;   - Edit product details&#xa;   - Manage product variants&#xa;   - Delete or archive product&#xa;&#xa;&#xa;4. Inventory Management&#xa;   - Track inventory levels&#xa;   - Update inventory&#xa;   - Set reorder alerts&#xa;&#xa;&#xa;5. Sales Management&#xa;   - Create a new sale&#xa;   - Add items to a sale&#xa;   - Apply discounts or offers&#xa;   - Complete sale transaction&#xa;   - Void or refund a sale&#xa;&#xa;&#xa;6. Customer Management&#xa;   - Add new customer&#xa;   - Edit customer details&#xa;   - View customer purchase history&#xa;&#xa;&#xa;7. Reporting&#xa;   - Generate sales reports&#xa;   - View product performance&#xa;   - Export reports&#xa;&#xa;&#xa;8. Settings and Configuration&#xa;   - Manage user roles and permissions&#xa;   - Customize app settings&#xa;   - Update business information&#xa;&#xa;&#xa;9. Payment Processing&#xa;   - Select payment method&#xa;   - Process payment&#xa;   - Handle payment errors or declined transactions&#xa;&#xa;&#xa;10. Notifications and Alerts&#xa;    - View and manage notifications&#xa;    - Set up alerts for low inventory or sales targets" style="text;whiteSpace=wrap;" vertex="1" parent="1">
          <mxGeometry x="10" y="10" width="380" height="890" as="geometry" />
        </mxCell>
        <mxCell id="KLkaMGFnh6U5lrwXZxZ8-27" style="edgeStyle=orthogonalEdgeStyle;rounded=0;orthogonalLoop=1;jettySize=auto;html=1;exitX=1;exitY=0.5;exitDx=0;exitDy=0;exitPerimeter=0;entryX=0;entryY=0.5;entryDx=0;entryDy=0;" edge="1" parent="1" source="KLkaMGFnh6U5lrwXZxZ8-2" target="KLkaMGFnh6U5lrwXZxZ8-17">
          <mxGeometry relative="1" as="geometry" />
        </mxCell>
        <mxCell id="KLkaMGFnh6U5lrwXZxZ8-2" value="Initiate password&lt;div&gt;reset process&lt;/div&gt;" style="strokeWidth=2;html=1;shape=mxgraph.flowchart.terminator;whiteSpace=wrap;rounded=0;labelBackgroundColor=none;shadow=1;" vertex="1" parent="1">
          <mxGeometry x="460" y="650" width="100" height="60" as="geometry" />
        </mxCell>
        <mxCell id="KLkaMGFnh6U5lrwXZxZ8-4" style="edgeStyle=orthogonalEdgeStyle;rounded=0;orthogonalLoop=1;jettySize=auto;html=1;exitX=1;exitY=0.5;exitDx=0;exitDy=0;entryX=0;entryY=0.5;entryDx=0;entryDy=0;entryPerimeter=0;" edge="1" parent="1" source="KLkaMGFnh6U5lrwXZxZ8-15" target="ATMucfQL7mX6FEVvn_mT-16">
          <mxGeometry relative="1" as="geometry">
            <mxPoint x="756" y="410" as="sourcePoint" />
          </mxGeometry>
        </mxCell>
        <mxCell id="KLkaMGFnh6U5lrwXZxZ8-10" style="edgeStyle=orthogonalEdgeStyle;rounded=0;orthogonalLoop=1;jettySize=auto;html=1;exitX=1;exitY=0.5;exitDx=0;exitDy=0;entryX=0;entryY=0.5;entryDx=0;entryDy=0;" edge="1" parent="1" source="KLkaMGFnh6U5lrwXZxZ8-7" target="ATMucfQL7mX6FEVvn_mT-4">
          <mxGeometry relative="1" as="geometry" />
        </mxCell>
        <mxCell id="KLkaMGFnh6U5lrwXZxZ8-7" value="User navigates to login screen" style="rounded=1;whiteSpace=wrap;html=1;absoluteArcSize=1;arcSize=14;strokeWidth=2;" vertex="1" parent="1">
          <mxGeometry x="640" y="50" width="100" height="100" as="geometry" />
        </mxCell>
        <mxCell id="KLkaMGFnh6U5lrwXZxZ8-12" value="Display an error message and provide option to retry" style="rounded=1;whiteSpace=wrap;html=1;absoluteArcSize=1;arcSize=14;strokeWidth=2;" vertex="1" parent="1">
          <mxGeometry x="1100" y="40" width="100" height="100" as="geometry" />
        </mxCell>
        <mxCell id="KLkaMGFnh6U5lrwXZxZ8-14" style="edgeStyle=orthogonalEdgeStyle;rounded=0;orthogonalLoop=1;jettySize=auto;html=1;exitX=1;exitY=0.5;exitDx=0;exitDy=0;exitPerimeter=0;entryX=-0.018;entryY=0.592;entryDx=0;entryDy=0;entryPerimeter=0;" edge="1" parent="1" source="ATMucfQL7mX6FEVvn_mT-5" target="KLkaMGFnh6U5lrwXZxZ8-12">
          <mxGeometry relative="1" as="geometry" />
        </mxCell>
        <mxCell id="KLkaMGFnh6U5lrwXZxZ8-15" value="User clicks on logout button" style="rounded=1;whiteSpace=wrap;html=1;absoluteArcSize=1;arcSize=14;strokeWidth=2;" vertex="1" parent="1">
          <mxGeometry x="640" y="350" width="100" height="100" as="geometry" />
        </mxCell>
        <mxCell id="KLkaMGFnh6U5lrwXZxZ8-28" style="edgeStyle=orthogonalEdgeStyle;rounded=0;orthogonalLoop=1;jettySize=auto;html=1;exitX=1;exitY=0.5;exitDx=0;exitDy=0;entryX=0;entryY=0.5;entryDx=0;entryDy=0;" edge="1" parent="1" source="KLkaMGFnh6U5lrwXZxZ8-17" target="KLkaMGFnh6U5lrwXZxZ8-19">
          <mxGeometry relative="1" as="geometry" />
        </mxCell>
        <mxCell id="KLkaMGFnh6U5lrwXZxZ8-17" value="User enters email&lt;div&gt;and password&amp;nbsp;&lt;/div&gt;&lt;div&gt;on the password&lt;/div&gt;&lt;div&gt;reset page&lt;/div&gt;" style="shape=parallelogram;html=1;strokeWidth=2;perimeter=parallelogramPerimeter;whiteSpace=wrap;rounded=1;arcSize=12;size=0.23;" vertex="1" parent="1">
          <mxGeometry x="580" y="640" width="160" height="80" as="geometry" />
        </mxCell>
        <mxCell id="KLkaMGFnh6U5lrwXZxZ8-18" value="User checks email&lt;div&gt;&amp;nbsp;for the reset link&lt;/div&gt;" style="shape=parallelogram;html=1;strokeWidth=2;perimeter=parallelogramPerimeter;whiteSpace=wrap;rounded=1;arcSize=12;size=0.23;" vertex="1" parent="1">
          <mxGeometry x="905" y="635" width="150" height="90" as="geometry" />
        </mxCell>
        <mxCell id="KLkaMGFnh6U5lrwXZxZ8-29" style="edgeStyle=orthogonalEdgeStyle;rounded=0;orthogonalLoop=1;jettySize=auto;html=1;exitX=1;exitY=0.5;exitDx=0;exitDy=0;" edge="1" parent="1" source="KLkaMGFnh6U5lrwXZxZ8-19" target="KLkaMGFnh6U5lrwXZxZ8-18">
          <mxGeometry relative="1" as="geometry" />
        </mxCell>
        <mxCell id="KLkaMGFnh6U5lrwXZxZ8-19" value="System sends a password reset link to the provided email address" style="rounded=1;whiteSpace=wrap;html=1;absoluteArcSize=1;arcSize=14;strokeWidth=2;" vertex="1" parent="1">
          <mxGeometry x="780" y="630" width="100" height="100" as="geometry" />
        </mxCell>
        <mxCell id="KLkaMGFnh6U5lrwXZxZ8-31" style="edgeStyle=orthogonalEdgeStyle;rounded=0;orthogonalLoop=1;jettySize=auto;html=1;exitX=0.5;exitY=1;exitDx=0;exitDy=0;entryX=0.5;entryY=0;entryDx=0;entryDy=0;" edge="1" parent="1" source="KLkaMGFnh6U5lrwXZxZ8-20" target="KLkaMGFnh6U5lrwXZxZ8-21">
          <mxGeometry relative="1" as="geometry" />
        </mxCell>
        <mxCell id="KLkaMGFnh6U5lrwXZxZ8-20" value="User clicks reset&lt;div&gt;link that takes&amp;nbsp;&lt;/div&gt;&lt;div&gt;them to the password reset page&lt;/div&gt;" style="rounded=1;whiteSpace=wrap;html=1;absoluteArcSize=1;arcSize=14;strokeWidth=2;" vertex="1" parent="1">
          <mxGeometry x="1090" y="620" width="100" height="100" as="geometry" />
        </mxCell>
        <mxCell id="KLkaMGFnh6U5lrwXZxZ8-32" style="edgeStyle=orthogonalEdgeStyle;rounded=0;orthogonalLoop=1;jettySize=auto;html=1;exitX=0.5;exitY=1;exitDx=0;exitDy=0;entryX=0.5;entryY=0;entryDx=0;entryDy=0;" edge="1" parent="1" source="KLkaMGFnh6U5lrwXZxZ8-21" target="KLkaMGFnh6U5lrwXZxZ8-22">
          <mxGeometry relative="1" as="geometry" />
        </mxCell>
        <mxCell id="KLkaMGFnh6U5lrwXZxZ8-21" value="User enters new password" style="shape=parallelogram;html=1;strokeWidth=2;perimeter=parallelogramPerimeter;whiteSpace=wrap;rounded=1;arcSize=12;size=0.23;" vertex="1" parent="1">
          <mxGeometry x="1073.34" y="760" width="133.33" height="80" as="geometry" />
        </mxCell>
        <mxCell id="KLkaMGFnh6U5lrwXZxZ8-22" value="User submits&lt;div&gt;the password&lt;/div&gt;" style="rounded=1;whiteSpace=wrap;html=1;absoluteArcSize=1;arcSize=14;strokeWidth=2;" vertex="1" parent="1">
          <mxGeometry x="1080" y="880" width="100" height="100" as="geometry" />
        </mxCell>
        <mxCell id="KLkaMGFnh6U5lrwXZxZ8-34" style="edgeStyle=orthogonalEdgeStyle;rounded=0;orthogonalLoop=1;jettySize=auto;html=1;exitX=0.5;exitY=1;exitDx=0;exitDy=0;exitPerimeter=0;entryX=0.5;entryY=0;entryDx=0;entryDy=0;" edge="1" parent="1" source="KLkaMGFnh6U5lrwXZxZ8-23" target="KLkaMGFnh6U5lrwXZxZ8-25">
          <mxGeometry relative="1" as="geometry" />
        </mxCell>
        <mxCell id="KLkaMGFnh6U5lrwXZxZ8-36" style="edgeStyle=orthogonalEdgeStyle;rounded=0;orthogonalLoop=1;jettySize=auto;html=1;exitX=1;exitY=0.5;exitDx=0;exitDy=0;exitPerimeter=0;entryX=0;entryY=0.5;entryDx=0;entryDy=0;" edge="1" parent="1" source="KLkaMGFnh6U5lrwXZxZ8-23" target="KLkaMGFnh6U5lrwXZxZ8-24">
          <mxGeometry relative="1" as="geometry" />
        </mxCell>
        <mxCell id="KLkaMGFnh6U5lrwXZxZ8-23" value="Validate request" style="strokeWidth=2;html=1;shape=mxgraph.flowchart.decision;whiteSpace=wrap;" vertex="1" parent="1">
          <mxGeometry x="1080" y="1000" width="100" height="100" as="geometry" />
        </mxCell>
        <mxCell id="KLkaMGFnh6U5lrwXZxZ8-39" style="edgeStyle=orthogonalEdgeStyle;rounded=0;orthogonalLoop=1;jettySize=auto;html=1;exitX=0.5;exitY=0;exitDx=0;exitDy=0;entryX=1;entryY=0.5;entryDx=0;entryDy=0;" edge="1" parent="1" source="KLkaMGFnh6U5lrwXZxZ8-24" target="KLkaMGFnh6U5lrwXZxZ8-21">
          <mxGeometry relative="1" as="geometry">
            <Array as="points">
              <mxPoint x="1290" y="800" />
            </Array>
          </mxGeometry>
        </mxCell>
        <mxCell id="KLkaMGFnh6U5lrwXZxZ8-24" value="Display an error&lt;div&gt;message in&amp;nbsp;&lt;/div&gt;&lt;div&gt;the form&lt;/div&gt;" style="rounded=1;whiteSpace=wrap;html=1;absoluteArcSize=1;arcSize=14;strokeWidth=2;" vertex="1" parent="1">
          <mxGeometry x="1240" y="1000" width="100" height="100" as="geometry" />
        </mxCell>
        <mxCell id="KLkaMGFnh6U5lrwXZxZ8-25" value="Update password on system and&amp;nbsp;&lt;div&gt;send success&lt;/div&gt;&lt;div&gt;message&lt;/div&gt;" style="rounded=1;whiteSpace=wrap;html=1;absoluteArcSize=1;arcSize=14;strokeWidth=2;" vertex="1" parent="1">
          <mxGeometry x="1080" y="1140" width="100" height="100" as="geometry" />
        </mxCell>
        <mxCell id="KLkaMGFnh6U5lrwXZxZ8-26" value="Password reset&lt;div&gt;successful&lt;/div&gt;" style="strokeWidth=2;html=1;shape=mxgraph.flowchart.start_1;whiteSpace=wrap;" vertex="1" parent="1">
          <mxGeometry x="1073.34" y="1270" width="100" height="60" as="geometry" />
        </mxCell>
        <mxCell id="KLkaMGFnh6U5lrwXZxZ8-30" style="edgeStyle=orthogonalEdgeStyle;rounded=0;orthogonalLoop=1;jettySize=auto;html=1;exitX=1;exitY=0.5;exitDx=0;exitDy=0;entryX=-0.006;entryY=0.598;entryDx=0;entryDy=0;entryPerimeter=0;" edge="1" parent="1" source="KLkaMGFnh6U5lrwXZxZ8-18" target="KLkaMGFnh6U5lrwXZxZ8-20">
          <mxGeometry relative="1" as="geometry" />
        </mxCell>
        <mxCell id="KLkaMGFnh6U5lrwXZxZ8-33" style="edgeStyle=orthogonalEdgeStyle;rounded=0;orthogonalLoop=1;jettySize=auto;html=1;exitX=0.5;exitY=1;exitDx=0;exitDy=0;entryX=0.5;entryY=0;entryDx=0;entryDy=0;entryPerimeter=0;" edge="1" parent="1" source="KLkaMGFnh6U5lrwXZxZ8-22" target="KLkaMGFnh6U5lrwXZxZ8-23">
          <mxGeometry relative="1" as="geometry" />
        </mxCell>
        <mxCell id="KLkaMGFnh6U5lrwXZxZ8-35" style="edgeStyle=orthogonalEdgeStyle;rounded=0;orthogonalLoop=1;jettySize=auto;html=1;exitX=0.5;exitY=1;exitDx=0;exitDy=0;entryX=0.5;entryY=0;entryDx=0;entryDy=0;entryPerimeter=0;" edge="1" parent="1" source="KLkaMGFnh6U5lrwXZxZ8-25" target="KLkaMGFnh6U5lrwXZxZ8-26">
          <mxGeometry relative="1" as="geometry" />
        </mxCell>
      </root>
    </mxGraphModel>
  </diagram>
  <diagram id="8Ey6CvOB55q3MK9NUdou" name="Dashboard">
    <mxGraphModel dx="1687" dy="868" grid="1" gridSize="10" guides="1" tooltips="1" connect="1" arrows="1" fold="1" page="1" pageScale="1" pageWidth="827" pageHeight="1169" math="0" shadow="0">
      <root>
        <mxCell id="0" />
        <mxCell id="1" parent="0" />
        <mxCell id="XnQq4tsRSRW_3GJyHeWu-1" style="edgeStyle=orthogonalEdgeStyle;rounded=0;orthogonalLoop=1;jettySize=auto;html=1;exitX=1;exitY=0.5;exitDx=0;exitDy=0;exitPerimeter=0;entryX=0;entryY=0.5;entryDx=0;entryDy=0;" edge="1" parent="1" source="XnQq4tsRSRW_3GJyHeWu-2" target="XnQq4tsRSRW_3GJyHeWu-4">
          <mxGeometry relative="1" as="geometry" />
        </mxCell>
        <mxCell id="XnQq4tsRSRW_3GJyHeWu-2" value="User access&lt;div&gt;the application&lt;/div&gt;" style="strokeWidth=2;html=1;shape=mxgraph.flowchart.start_1;whiteSpace=wrap;" vertex="1" parent="1">
          <mxGeometry x="490" y="460" width="100" height="60" as="geometry" />
        </mxCell>
        <mxCell id="XnQq4tsRSRW_3GJyHeWu-3" style="edgeStyle=orthogonalEdgeStyle;rounded=0;orthogonalLoop=1;jettySize=auto;html=1;exitX=1;exitY=0.5;exitDx=0;exitDy=0;entryX=0;entryY=0.5;entryDx=0;entryDy=0;" edge="1" parent="1" source="XnQq4tsRSRW_3GJyHeWu-4" target="XnQq4tsRSRW_3GJyHeWu-11">
          <mxGeometry relative="1" as="geometry" />
        </mxCell>
        <mxCell id="XnQq4tsRSRW_3GJyHeWu-4" value="User views main&lt;div&gt;dashboard of&lt;/div&gt;&lt;div&gt;the application&lt;/div&gt;" style="rounded=1;whiteSpace=wrap;html=1;absoluteArcSize=1;arcSize=14;strokeWidth=2;" vertex="1" parent="1">
          <mxGeometry x="650" y="440" width="100" height="100" as="geometry" />
        </mxCell>
        <mxCell id="XnQq4tsRSRW_3GJyHeWu-5" style="edgeStyle=orthogonalEdgeStyle;rounded=0;orthogonalLoop=1;jettySize=auto;html=1;exitX=1;exitY=0.5;exitDx=0;exitDy=0;entryX=0;entryY=0.5;entryDx=0;entryDy=0;" edge="1" parent="1" source="XnQq4tsRSRW_3GJyHeWu-11" target="XnQq4tsRSRW_3GJyHeWu-12">
          <mxGeometry relative="1" as="geometry" />
        </mxCell>
        <mxCell id="XnQq4tsRSRW_3GJyHeWu-6" style="edgeStyle=orthogonalEdgeStyle;rounded=0;orthogonalLoop=1;jettySize=auto;html=1;exitX=1;exitY=0.5;exitDx=0;exitDy=0;entryX=0;entryY=0.5;entryDx=0;entryDy=0;" edge="1" parent="1" source="XnQq4tsRSRW_3GJyHeWu-11" target="XnQq4tsRSRW_3GJyHeWu-13">
          <mxGeometry relative="1" as="geometry" />
        </mxCell>
        <mxCell id="XnQq4tsRSRW_3GJyHeWu-7" style="edgeStyle=orthogonalEdgeStyle;rounded=0;orthogonalLoop=1;jettySize=auto;html=1;exitX=1;exitY=0.5;exitDx=0;exitDy=0;entryX=0;entryY=0.5;entryDx=0;entryDy=0;" edge="1" parent="1" source="XnQq4tsRSRW_3GJyHeWu-11" target="XnQq4tsRSRW_3GJyHeWu-14">
          <mxGeometry relative="1" as="geometry" />
        </mxCell>
        <mxCell id="XnQq4tsRSRW_3GJyHeWu-8" style="edgeStyle=orthogonalEdgeStyle;rounded=0;orthogonalLoop=1;jettySize=auto;html=1;exitX=1;exitY=0.5;exitDx=0;exitDy=0;entryX=0;entryY=0.5;entryDx=0;entryDy=0;" edge="1" parent="1" source="XnQq4tsRSRW_3GJyHeWu-11" target="XnQq4tsRSRW_3GJyHeWu-16">
          <mxGeometry relative="1" as="geometry" />
        </mxCell>
        <mxCell id="XnQq4tsRSRW_3GJyHeWu-9" style="edgeStyle=orthogonalEdgeStyle;rounded=0;orthogonalLoop=1;jettySize=auto;html=1;exitX=1;exitY=0.5;exitDx=0;exitDy=0;entryX=0;entryY=0.5;entryDx=0;entryDy=0;" edge="1" parent="1" source="XnQq4tsRSRW_3GJyHeWu-11" target="XnQq4tsRSRW_3GJyHeWu-17">
          <mxGeometry relative="1" as="geometry" />
        </mxCell>
        <mxCell id="XnQq4tsRSRW_3GJyHeWu-10" style="edgeStyle=orthogonalEdgeStyle;rounded=0;orthogonalLoop=1;jettySize=auto;html=1;exitX=1;exitY=0.5;exitDx=0;exitDy=0;entryX=0;entryY=0.5;entryDx=0;entryDy=0;" edge="1" parent="1" source="XnQq4tsRSRW_3GJyHeWu-11" target="XnQq4tsRSRW_3GJyHeWu-18">
          <mxGeometry relative="1" as="geometry" />
        </mxCell>
        <mxCell id="XnQq4tsRSRW_3GJyHeWu-11" value="User chooses to&amp;nbsp;&lt;div&gt;navigate to different sections such as products,&lt;/div&gt;&lt;div&gt;sales, reports&lt;/div&gt;" style="rounded=1;whiteSpace=wrap;html=1;absoluteArcSize=1;arcSize=14;strokeWidth=2;" vertex="1" parent="1">
          <mxGeometry x="810" y="440" width="100" height="100" as="geometry" />
        </mxCell>
        <mxCell id="XnQq4tsRSRW_3GJyHeWu-12" value="User views and interacts with the Products section" style="rounded=1;whiteSpace=wrap;html=1;absoluteArcSize=1;arcSize=14;strokeWidth=2;" vertex="1" parent="1">
          <mxGeometry x="1070" y="120" width="100" height="100" as="geometry" />
        </mxCell>
        <mxCell id="XnQq4tsRSRW_3GJyHeWu-13" value="&#xa;User views and interacts with the Sales section&#xa;&#xa;" style="rounded=1;whiteSpace=wrap;html=1;absoluteArcSize=1;arcSize=14;strokeWidth=2;" vertex="1" parent="1">
          <mxGeometry x="1070" y="260" width="100" height="100" as="geometry" />
        </mxCell>
        <mxCell id="XnQq4tsRSRW_3GJyHeWu-14" value="User views and interacts with the Reports section" style="rounded=1;whiteSpace=wrap;html=1;absoluteArcSize=1;arcSize=14;strokeWidth=2;" vertex="1" parent="1">
          <mxGeometry x="1070" y="390" width="100" height="100" as="geometry" />
        </mxCell>
        <mxCell id="XnQq4tsRSRW_3GJyHeWu-15" value="User views and interacts with the Inventory section" style="rounded=1;whiteSpace=wrap;html=1;absoluteArcSize=1;arcSize=14;strokeWidth=2;" vertex="1" parent="1">
          <mxGeometry x="1070" y="520" width="100" height="100" as="geometry" />
        </mxCell>
        <mxCell id="XnQq4tsRSRW_3GJyHeWu-16" value="User views and interacts with the reports section" style="rounded=1;whiteSpace=wrap;html=1;absoluteArcSize=1;arcSize=14;strokeWidth=2;" vertex="1" parent="1">
          <mxGeometry x="1070" y="630" width="100" height="100" as="geometry" />
        </mxCell>
        <mxCell id="XnQq4tsRSRW_3GJyHeWu-17" value="User views and interacts with the payments section" style="rounded=1;whiteSpace=wrap;html=1;absoluteArcSize=1;arcSize=14;strokeWidth=2;" vertex="1" parent="1">
          <mxGeometry x="1070" y="750" width="100" height="100" as="geometry" />
        </mxCell>
        <mxCell id="XnQq4tsRSRW_3GJyHeWu-18" value="User views and interacts with the notifications section" style="rounded=1;whiteSpace=wrap;html=1;absoluteArcSize=1;arcSize=14;strokeWidth=2;" vertex="1" parent="1">
          <mxGeometry x="1070" y="870" width="100" height="100" as="geometry" />
        </mxCell>
        <mxCell id="XnQq4tsRSRW_3GJyHeWu-19" style="edgeStyle=orthogonalEdgeStyle;rounded=0;orthogonalLoop=1;jettySize=auto;html=1;exitX=1;exitY=0.5;exitDx=0;exitDy=0;entryX=-0.006;entryY=0.635;entryDx=0;entryDy=0;entryPerimeter=0;" edge="1" parent="1" source="XnQq4tsRSRW_3GJyHeWu-11" target="XnQq4tsRSRW_3GJyHeWu-15">
          <mxGeometry relative="1" as="geometry" />
        </mxCell>
        <mxCell id="ET9BGdN6wAJWBJ6dI6yu-1" value="1. User Authentication&#xa;   - Sign up&#xa;   - Log in&#xa;   - Log out&#xa;   - Password reset&#xa;&#xa;&#xa;2. Dashboard Access&#xa;   - View dashboard&#xa;   - Navigate to different sections (e.g., Products, Sales, Reports)&#xa;&#xa;&#xa;3. Product Management&#xa;   - Add product&#xa;   - Edit product details&#xa;   - Manage product variants&#xa;   - Delete or archive product&#xa;&#xa;&#xa;4. Inventory Management&#xa;   - Track inventory levels&#xa;   - Update inventory&#xa;   - Set reorder alerts&#xa;&#xa;&#xa;5. Sales Management&#xa;   - Create a new sale&#xa;   - Add items to a sale&#xa;   - Apply discounts or offers&#xa;   - Complete sale transaction&#xa;   - Void or refund a sale&#xa;&#xa;&#xa;6. Customer Management&#xa;   - Add new customer&#xa;   - Edit customer details&#xa;   - View customer purchase history&#xa;&#xa;&#xa;7. Reporting&#xa;   - Generate sales reports&#xa;   - View product performance&#xa;   - Export reports&#xa;&#xa;&#xa;8. Settings and Configuration&#xa;   - Manage user roles and permissions&#xa;   - Customize app settings&#xa;   - Update business information&#xa;&#xa;&#xa;9. Payment Processing&#xa;   - Select payment method&#xa;   - Process payment&#xa;   - Handle payment errors or declined transactions&#xa;&#xa;&#xa;10. Notifications and Alerts&#xa;    - View and manage notifications&#xa;    - Set up alerts for low inventory or sales targets" style="text;whiteSpace=wrap;" vertex="1" parent="1">
          <mxGeometry x="10" y="10" width="380" height="890" as="geometry" />
        </mxCell>
      </root>
    </mxGraphModel>
  </diagram>
  <diagram id="oy20ObqP9nqBbCuuLZpR" name="Product Management">
    <mxGraphModel dx="2514" dy="868" grid="1" gridSize="10" guides="1" tooltips="1" connect="1" arrows="1" fold="1" page="1" pageScale="1" pageWidth="827" pageHeight="1169" math="0" shadow="0">
      <root>
        <mxCell id="0" />
        <mxCell id="1" parent="0" />
        <mxCell id="xkSeCWseFW73DzE7r6MW-15" style="edgeStyle=orthogonalEdgeStyle;rounded=0;orthogonalLoop=1;jettySize=auto;html=1;exitX=1;exitY=0.5;exitDx=0;exitDy=0;exitPerimeter=0;entryX=0;entryY=0.5;entryDx=0;entryDy=0;" edge="1" parent="1" source="xkSeCWseFW73DzE7r6MW-1" target="xkSeCWseFW73DzE7r6MW-2">
          <mxGeometry relative="1" as="geometry" />
        </mxCell>
        <mxCell id="xkSeCWseFW73DzE7r6MW-1" value="User access the product management section" style="strokeWidth=2;html=1;shape=mxgraph.flowchart.start_1;whiteSpace=wrap;" vertex="1" parent="1">
          <mxGeometry x="60" y="370" width="150" height="90" as="geometry" />
        </mxCell>
        <mxCell id="xkSeCWseFW73DzE7r6MW-16" style="edgeStyle=orthogonalEdgeStyle;rounded=0;orthogonalLoop=1;jettySize=auto;html=1;exitX=1;exitY=0.5;exitDx=0;exitDy=0;entryX=0;entryY=0.5;entryDx=0;entryDy=0;" edge="1" parent="1" source="xkSeCWseFW73DzE7r6MW-2" target="xkSeCWseFW73DzE7r6MW-3">
          <mxGeometry relative="1" as="geometry" />
        </mxCell>
        <mxCell id="xkSeCWseFW73DzE7r6MW-2" value="User adds a new&amp;nbsp;&lt;div&gt;product to the&lt;/div&gt;&lt;div&gt;inventory&lt;/div&gt;" style="shape=parallelogram;html=1;strokeWidth=2;perimeter=parallelogramPerimeter;whiteSpace=wrap;rounded=1;arcSize=12;size=0.23;" vertex="1" parent="1">
          <mxGeometry x="250" y="372.5" width="141.67" height="85" as="geometry" />
        </mxCell>
        <mxCell id="xkSeCWseFW73DzE7r6MW-3" value="user inputs details&amp;nbsp;&lt;div&gt;such as name,&amp;nbsp;&lt;/div&gt;&lt;div&gt;description, price,&amp;nbsp;&lt;/div&gt;&lt;div&gt;and category&lt;/div&gt;" style="shape=parallelogram;html=1;strokeWidth=2;perimeter=parallelogramPerimeter;whiteSpace=wrap;rounded=1;arcSize=12;size=0.23;" vertex="1" parent="1">
          <mxGeometry x="414" y="360" width="183.33" height="110" as="geometry" />
        </mxCell>
        <mxCell id="xkSeCWseFW73DzE7r6MW-18" style="edgeStyle=orthogonalEdgeStyle;rounded=0;orthogonalLoop=1;jettySize=auto;html=1;exitX=0.5;exitY=1;exitDx=0;exitDy=0;entryX=0.5;entryY=0;entryDx=0;entryDy=0;" edge="1" parent="1" source="xkSeCWseFW73DzE7r6MW-4" target="xkSeCWseFW73DzE7r6MW-5">
          <mxGeometry relative="1" as="geometry" />
        </mxCell>
        <mxCell id="xkSeCWseFW73DzE7r6MW-4" value="System saves the new product to the databse" style="rounded=1;whiteSpace=wrap;html=1;absoluteArcSize=1;arcSize=14;strokeWidth=2;" vertex="1" parent="1">
          <mxGeometry x="620" y="373" width="100" height="100" as="geometry" />
        </mxCell>
        <mxCell id="xkSeCWseFW73DzE7r6MW-19" style="edgeStyle=orthogonalEdgeStyle;rounded=0;orthogonalLoop=1;jettySize=auto;html=1;exitX=1;exitY=0.5;exitDx=0;exitDy=0;entryX=0;entryY=0.5;entryDx=0;entryDy=0;" edge="1" parent="1" source="xkSeCWseFW73DzE7r6MW-5" target="xkSeCWseFW73DzE7r6MW-6">
          <mxGeometry relative="1" as="geometry" />
        </mxCell>
        <mxCell id="xkSeCWseFW73DzE7r6MW-5" value="User selects an existing product to edit" style="rounded=1;whiteSpace=wrap;html=1;absoluteArcSize=1;arcSize=14;strokeWidth=2;" vertex="1" parent="1">
          <mxGeometry x="85" y="580" width="100" height="100" as="geometry" />
        </mxCell>
        <mxCell id="xkSeCWseFW73DzE7r6MW-20" style="edgeStyle=orthogonalEdgeStyle;rounded=0;orthogonalLoop=1;jettySize=auto;html=1;exitX=1;exitY=0.5;exitDx=0;exitDy=0;entryX=0;entryY=0.5;entryDx=0;entryDy=0;" edge="1" parent="1" source="xkSeCWseFW73DzE7r6MW-6" target="xkSeCWseFW73DzE7r6MW-7">
          <mxGeometry relative="1" as="geometry" />
        </mxCell>
        <mxCell id="xkSeCWseFW73DzE7r6MW-6" value="User updates details such as name, description, price, and category" style="shape=parallelogram;html=1;strokeWidth=2;perimeter=parallelogramPerimeter;whiteSpace=wrap;rounded=1;arcSize=12;size=0.23;" vertex="1" parent="1">
          <mxGeometry x="237.5" y="580" width="166.67" height="100" as="geometry" />
        </mxCell>
        <mxCell id="xkSeCWseFW73DzE7r6MW-21" style="edgeStyle=orthogonalEdgeStyle;rounded=0;orthogonalLoop=1;jettySize=auto;html=1;exitX=1;exitY=0.5;exitDx=0;exitDy=0;entryX=0;entryY=0.5;entryDx=0;entryDy=0;" edge="1" parent="1" source="xkSeCWseFW73DzE7r6MW-7" target="xkSeCWseFW73DzE7r6MW-9">
          <mxGeometry relative="1" as="geometry" />
        </mxCell>
        <mxCell id="xkSeCWseFW73DzE7r6MW-7" value="User saves the updated product details" style="rounded=1;whiteSpace=wrap;html=1;absoluteArcSize=1;arcSize=14;strokeWidth=2;" vertex="1" parent="1">
          <mxGeometry x="455.66" y="580" width="100" height="100" as="geometry" />
        </mxCell>
        <mxCell id="xkSeCWseFW73DzE7r6MW-22" style="edgeStyle=orthogonalEdgeStyle;rounded=0;orthogonalLoop=1;jettySize=auto;html=1;exitX=0.5;exitY=1;exitDx=0;exitDy=0;entryX=0.5;entryY=0;entryDx=0;entryDy=0;" edge="1" parent="1" source="xkSeCWseFW73DzE7r6MW-9" target="xkSeCWseFW73DzE7r6MW-10">
          <mxGeometry relative="1" as="geometry" />
        </mxCell>
        <mxCell id="xkSeCWseFW73DzE7r6MW-9" value="User adds or updates product variants" style="rounded=1;whiteSpace=wrap;html=1;absoluteArcSize=1;arcSize=14;strokeWidth=2;" vertex="1" parent="1">
          <mxGeometry x="597.33" y="580" width="100" height="100" as="geometry" />
        </mxCell>
        <mxCell id="xkSeCWseFW73DzE7r6MW-10" value="User deletes or archives a product from the inventory" style="rounded=1;whiteSpace=wrap;html=1;absoluteArcSize=1;arcSize=14;strokeWidth=2;" vertex="1" parent="1">
          <mxGeometry x="85" y="760" width="100" height="100" as="geometry" />
        </mxCell>
        <mxCell id="xkSeCWseFW73DzE7r6MW-25" style="edgeStyle=orthogonalEdgeStyle;rounded=0;orthogonalLoop=1;jettySize=auto;html=1;exitX=1;exitY=0.5;exitDx=0;exitDy=0;exitPerimeter=0;entryX=0;entryY=0.5;entryDx=0;entryDy=0;" edge="1" parent="1" source="xkSeCWseFW73DzE7r6MW-11" target="xkSeCWseFW73DzE7r6MW-14">
          <mxGeometry relative="1" as="geometry" />
        </mxCell>
        <mxCell id="xkSeCWseFW73DzE7r6MW-27" style="edgeStyle=orthogonalEdgeStyle;rounded=0;orthogonalLoop=1;jettySize=auto;html=1;exitX=0.5;exitY=1;exitDx=0;exitDy=0;exitPerimeter=0;entryX=0.5;entryY=0;entryDx=0;entryDy=0;" edge="1" parent="1" source="xkSeCWseFW73DzE7r6MW-11" target="xkSeCWseFW73DzE7r6MW-13">
          <mxGeometry relative="1" as="geometry" />
        </mxCell>
        <mxCell id="xkSeCWseFW73DzE7r6MW-11" value="Confirm deletion" style="strokeWidth=2;html=1;shape=mxgraph.flowchart.decision;whiteSpace=wrap;" vertex="1" parent="1">
          <mxGeometry x="237.5" y="760" width="100" height="100" as="geometry" />
        </mxCell>
        <mxCell id="xkSeCWseFW73DzE7r6MW-12" value="User completes product management&lt;div&gt;task&lt;/div&gt;" style="strokeWidth=2;html=1;shape=mxgraph.flowchart.start_1;whiteSpace=wrap;" vertex="1" parent="1">
          <mxGeometry x="555.66" y="772.5" width="125" height="75" as="geometry" />
        </mxCell>
        <mxCell id="xkSeCWseFW73DzE7r6MW-13" value="Delete or archival aborted" style="rounded=1;whiteSpace=wrap;html=1;absoluteArcSize=1;arcSize=14;strokeWidth=2;" vertex="1" parent="1">
          <mxGeometry x="237.5" y="900" width="100" height="100" as="geometry" />
        </mxCell>
        <mxCell id="xkSeCWseFW73DzE7r6MW-14" value="Product is removed or archived" style="rounded=1;whiteSpace=wrap;html=1;absoluteArcSize=1;arcSize=14;strokeWidth=2;" vertex="1" parent="1">
          <mxGeometry x="380" y="760" width="100" height="100" as="geometry" />
        </mxCell>
        <mxCell id="xkSeCWseFW73DzE7r6MW-17" style="edgeStyle=orthogonalEdgeStyle;rounded=0;orthogonalLoop=1;jettySize=auto;html=1;exitX=1;exitY=0.5;exitDx=0;exitDy=0;entryX=0.01;entryY=0.44;entryDx=0;entryDy=0;entryPerimeter=0;" edge="1" parent="1" source="xkSeCWseFW73DzE7r6MW-3" target="xkSeCWseFW73DzE7r6MW-4">
          <mxGeometry relative="1" as="geometry" />
        </mxCell>
        <mxCell id="xkSeCWseFW73DzE7r6MW-24" style="edgeStyle=orthogonalEdgeStyle;rounded=0;orthogonalLoop=1;jettySize=auto;html=1;exitX=1;exitY=0.5;exitDx=0;exitDy=0;entryX=0;entryY=0.5;entryDx=0;entryDy=0;entryPerimeter=0;" edge="1" parent="1" source="xkSeCWseFW73DzE7r6MW-10" target="xkSeCWseFW73DzE7r6MW-11">
          <mxGeometry relative="1" as="geometry" />
        </mxCell>
        <mxCell id="xkSeCWseFW73DzE7r6MW-26" style="edgeStyle=orthogonalEdgeStyle;rounded=0;orthogonalLoop=1;jettySize=auto;html=1;exitX=1;exitY=0.5;exitDx=0;exitDy=0;entryX=0;entryY=0.5;entryDx=0;entryDy=0;entryPerimeter=0;" edge="1" parent="1" source="xkSeCWseFW73DzE7r6MW-14" target="xkSeCWseFW73DzE7r6MW-12">
          <mxGeometry relative="1" as="geometry" />
        </mxCell>
        <mxCell id="P9m0KAPZKbixTcTGlO_T-1" value="1. User Authentication&#xa;   - Sign up&#xa;   - Log in&#xa;   - Log out&#xa;   - Password reset&#xa;&#xa;&#xa;2. Dashboard Access&#xa;   - View dashboard&#xa;   - Navigate to different sections (e.g., Products, Sales, Reports)&#xa;&#xa;&#xa;3. Product Management&#xa;   - Add product&#xa;   - Edit product details&#xa;   - Manage product variants&#xa;   - Delete or archive product&#xa;&#xa;&#xa;4. Inventory Management&#xa;   - Track inventory levels&#xa;   - Update inventory&#xa;   - Set reorder alerts&#xa;&#xa;&#xa;5. Sales Management&#xa;   - Create a new sale&#xa;   - Add items to a sale&#xa;   - Apply discounts or offers&#xa;   - Complete sale transaction&#xa;   - Void or refund a sale&#xa;&#xa;&#xa;6. Customer Management&#xa;   - Add new customer&#xa;   - Edit customer details&#xa;   - View customer purchase history&#xa;&#xa;&#xa;7. Reporting&#xa;   - Generate sales reports&#xa;   - View product performance&#xa;   - Export reports&#xa;&#xa;&#xa;8. Settings and Configuration&#xa;   - Manage user roles and permissions&#xa;   - Customize app settings&#xa;   - Update business information&#xa;&#xa;&#xa;9. Payment Processing&#xa;   - Select payment method&#xa;   - Process payment&#xa;   - Handle payment errors or declined transactions&#xa;&#xa;&#xa;10. Notifications and Alerts&#xa;    - View and manage notifications&#xa;    - Set up alerts for low inventory or sales targets" style="text;whiteSpace=wrap;" vertex="1" parent="1">
          <mxGeometry x="-603" y="190" width="380" height="890" as="geometry" />
        </mxCell>
      </root>
    </mxGraphModel>
  </diagram>
  <diagram id="fErVwJJDAx_JUwvB0Bmo" name="Sales Management">
    <mxGraphModel dx="1434" dy="738" grid="1" gridSize="10" guides="1" tooltips="1" connect="1" arrows="1" fold="1" page="1" pageScale="1" pageWidth="827" pageHeight="1169" math="0" shadow="0">
      <root>
        <mxCell id="0" />
        <mxCell id="1" parent="0" />
      </root>
    </mxGraphModel>
  </diagram>
</mxfile>
